<svg width="920" height="920" viewBox="0 0 920 920" fill="none" xmlns="http://www.w3.org/2000/svg">
<path fill-rule="evenodd" clip-rule="evenodd" d="M411.124 428L0 839.238L80.7516 920L451.494 549.167L822.248 920L903 839.238L491.876 428H411.124Z" fill="#00C620"/>
<path fill-rule="evenodd" clip-rule="evenodd" d="M708.5 114.324C762.084 114.324 805.676 157.916 805.676 211.5C805.676 265.084 762.084 308.676 708.5 308.676C654.916 308.676 611.324 265.084 611.324 211.5C611.324 157.916 654.916 114.324 708.5 114.324M708.5 423C825.122 423 920 328.122 920 211.5C920 94.8778 825.122 0 708.5 0C591.878 0 497 94.8778 497 211.5C497 328.122 591.878 423 708.5 423" fill="#00C620"/>
<path fill-rule="evenodd" clip-rule="evenodd" d="M0 530.309L80.7399 611L286.272 405.564L303 365.219V57.0655L245.908 0H40.3756V114.131H188.815V341.582L0 530.309Z" fill="#00C620"/>
<path fill-rule="evenodd" clip-rule="evenodd" d="M349 114H452V0H349V114Z" fill="#00C620"/>
</svg>
